<svg xmlns="http://www.w3.org/2000/svg" viewBox="0 0 800 800" width="800" height="800"><defs><radialGradient id="bgcosmet" cx="50%" cy="38%" r="70%"><stop offset="0" stop-color="#FFFFFF"/><stop offset="1" stop-color="#F7F7F5"/></radialGradient><linearGradient id="gcosmet" x1="0" x2="1"><stop offset="0" stop-color="#2F7D5C"/><stop offset=".55" stop-color="#2F7D5C" stop-opacity=".88"/><stop offset="1" stop-color="#2F7D5C"/></linearGradient><linearGradient id="dcosmet" x1="0" x2="1"><stop offset="0" stop-color="#1B4D3E"/><stop offset=".55" stop-color="#1B4D3E" stop-opacity=".88"/><stop offset="1" stop-color="#1B4D3E"/></linearGradient><linearGradient id="ocosmet" x1="0" x2="1"><stop offset="0" stop-color="#FF7A00"/><stop offset=".55" stop-color="#FF7A00" stop-opacity=".88"/><stop offset="1" stop-color="#FF7A00"/></linearGradient><linearGradient id="kcosmet" x1="0" x2="1"><stop offset="0" stop-color="#222222"/><stop offset=".55" stop-color="#222222" stop-opacity=".88"/><stop offset="1" stop-color="#222222"/></linearGradient><linearGradient id="shcosmet" x1="0" x2="1"><stop offset="0" stop-color="#FFFFFF" stop-opacity="0"/><stop offset=".3" stop-color="#FFFFFF" stop-opacity=".55"/><stop offset=".5" stop-color="#FFFFFF" stop-opacity="0"/></linearGradient><radialGradient id="glcosmet" cx="50%" cy="50%" r="50%"><stop offset="0" stop-color="#FF7A00" stop-opacity=".45"/><stop offset="1" stop-color="#FF7A00" stop-opacity="0"/></radialGradient></defs><rect width="800" height="800" fill="url(#bgcosmet)"/><ellipse cx="400" cy="690" rx="240" ry="26" fill="#222222" fill-opacity=".10"/><rect x="200" y="420" width="140" height="240" rx="18" fill="url(#kcosmet)"/><rect x="215" y="430" width="30" height="220" rx="14" fill="url(#shcosmet)"/>
<rect x="215" y="330" width="110" height="100" rx="10" fill="url(#dcosmet)"/>
<path d="M230 330 v-120 q40 -60 80 -30 v150z" fill="#FF7A00"/>
<rect x="400" y="330" width="220" height="330" rx="60" fill="url(#gcosmet)"/><rect x="420" y="350" width="50" height="290" rx="24" fill="url(#shcosmet)"/>
<rect x="470" y="260" width="80" height="80" rx="14" fill="#222222" fill-opacity=".85"/><rect x="495" y="200" width="30" height="70" fill="#222222" fill-opacity=".85"/>
<path d="M495 205 h-70 v-30 h100z" fill="#222222" fill-opacity=".85"/><circle cx="510" cy="500" r="40" fill="#FFFFFF" fill-opacity=".85"/><circle cx="510" cy="500" r="18" fill="#FF7A00"/></svg>